<svg fill="#000000" xmlns="http://www.w3.org/2000/svg"  viewBox="0 0 80 80" width="80px" height="80px"><path d="M 40 3 C 35.394531 3 31.726563 6.53125 31.203125 11 L 11 11 L 11 31.203125 C 6.53125 31.726563 3 35.394531 3 40 C 3 44.605469 6.53125 48.273438 11 48.796875 L 11 69 L 31.203125 69 C 31.726563 73.46875 35.394531 77 40 77 C 44.605469 77 48.273438 73.46875 48.796875 69 L 69 69 L 69 47.046875 L 68.125 46.9375 C 64.667969 46.507813 62 43.578125 62 40 C 62 36.421875 64.667969 33.492188 68.125 33.0625 L 69 32.953125 L 69 11 L 48.796875 11 C 48.273438 6.53125 44.605469 3 40 3 Z M 40 5 C 43.878906 5 47 8.121094 47 12 L 47 13 L 67 13 L 67 31.355469 C 63.019531 32.28125 60 35.746094 60 40 C 60 44.253906 63.019531 47.71875 67 48.644531 L 67 67 L 47 67 L 47 68 C 47 71.878906 43.878906 75 40 75 C 36.121094 75 33 71.878906 33 68 L 33 67 L 13 67 L 13 47 L 12 47 C 8.121094 47 5 43.878906 5 40 C 5 36.121094 8.121094 33 12 33 L 13 33 L 13 13 L 33 13 L 33 12 C 33 8.121094 36.121094 5 40 5 Z M 18 17 C 17.449219 17 17 17.449219 17 18 C 17 18.550781 17.449219 19 18 19 C 18.550781 19 19 18.550781 19 18 C 19 17.449219 18.550781 17 18 17 Z M 22 17 C 21.449219 17 21 17.449219 21 18 C 21 18.550781 21.449219 19 22 19 C 22.550781 19 23 18.550781 23 18 C 23 17.449219 22.550781 17 22 17 Z M 26 17 C 25.449219 17 25 17.449219 25 18 C 25 18.550781 25.449219 19 26 19 C 26.550781 19 27 18.550781 27 18 C 27 17.449219 26.550781 17 26 17 Z M 30 17 C 29.449219 17 29 17.449219 29 18 C 29 18.550781 29.449219 19 30 19 C 30.550781 19 31 18.550781 31 18 C 31 17.449219 30.550781 17 30 17 Z M 50 17 C 49.449219 17 49 17.449219 49 18 C 49 18.550781 49.449219 19 50 19 C 50.550781 19 51 18.550781 51 18 C 51 17.449219 50.550781 17 50 17 Z M 54 17 C 53.449219 17 53 17.449219 53 18 C 53 18.550781 53.449219 19 54 19 C 54.550781 19 55 18.550781 55 18 C 55 17.449219 54.550781 17 54 17 Z M 58 17 C 57.449219 17 57 17.449219 57 18 C 57 18.550781 57.449219 19 58 19 C 58.550781 19 59 18.550781 59 18 C 59 17.449219 58.550781 17 58 17 Z M 62 17 C 61.449219 17 61 17.449219 61 18 C 61 18.550781 61.449219 19 62 19 C 62.550781 19 63 18.550781 63 18 C 63 17.449219 62.550781 17 62 17 Z M 18 21 C 17.449219 21 17 21.449219 17 22 C 17 22.550781 17.449219 23 18 23 C 18.550781 23 19 22.550781 19 22 C 19 21.449219 18.550781 21 18 21 Z M 62 21 C 61.449219 21 61 21.449219 61 22 C 61 22.550781 61.449219 23 62 23 C 62.550781 23 63 22.550781 63 22 C 63 21.449219 62.550781 21 62 21 Z M 18 25 C 17.449219 25 17 25.449219 17 26 C 17 26.550781 17.449219 27 18 27 C 18.550781 27 19 26.550781 19 26 C 19 25.449219 18.550781 25 18 25 Z M 62 25 C 61.449219 25 61 25.449219 61 26 C 61 26.550781 61.449219 27 62 27 C 62.550781 27 63 26.550781 63 26 C 63 25.449219 62.550781 25 62 25 Z M 18 29 C 17.449219 29 17 29.449219 17 30 C 17 30.550781 17.449219 31 18 31 C 18.550781 31 19 30.550781 19 30 C 19 29.449219 18.550781 29 18 29 Z M 18 49 C 17.449219 49 17 49.449219 17 50 C 17 50.550781 17.449219 51 18 51 C 18.550781 51 19 50.550781 19 50 C 19 49.449219 18.550781 49 18 49 Z M 18 53 C 17.449219 53 17 53.449219 17 54 C 17 54.550781 17.449219 55 18 55 C 18.550781 55 19 54.550781 19 54 C 19 53.449219 18.550781 53 18 53 Z M 62 53 C 61.449219 53 61 53.449219 61 54 C 61 54.550781 61.449219 55 62 55 C 62.550781 55 63 54.550781 63 54 C 63 53.449219 62.550781 53 62 53 Z M 18 57 C 17.449219 57 17 57.449219 17 58 C 17 58.550781 17.449219 59 18 59 C 18.550781 59 19 58.550781 19 58 C 19 57.449219 18.550781 57 18 57 Z M 62 57 C 61.449219 57 61 57.449219 61 58 C 61 58.550781 61.449219 59 62 59 C 62.550781 59 63 58.550781 63 58 C 63 57.449219 62.550781 57 62 57 Z M 18 61 C 17.449219 61 17 61.449219 17 62 C 17 62.550781 17.449219 63 18 63 C 18.550781 63 19 62.550781 19 62 C 19 61.449219 18.550781 61 18 61 Z M 22 61 C 21.449219 61 21 61.449219 21 62 C 21 62.550781 21.449219 63 22 63 C 22.550781 63 23 62.550781 23 62 C 23 61.449219 22.550781 61 22 61 Z M 26 61 C 25.449219 61 25 61.449219 25 62 C 25 62.550781 25.449219 63 26 63 C 26.550781 63 27 62.550781 27 62 C 27 61.449219 26.550781 61 26 61 Z M 30 61 C 29.449219 61 29 61.449219 29 62 C 29 62.550781 29.449219 63 30 63 C 30.550781 63 31 62.550781 31 62 C 31 61.449219 30.550781 61 30 61 Z M 50 61 C 49.449219 61 49 61.449219 49 62 C 49 62.550781 49.449219 63 50 63 C 50.550781 63 51 62.550781 51 62 C 51 61.449219 50.550781 61 50 61 Z M 54 61 C 53.449219 61 53 61.449219 53 62 C 53 62.550781 53.449219 63 54 63 C 54.550781 63 55 62.550781 55 62 C 55 61.449219 54.550781 61 54 61 Z M 58 61 C 57.449219 61 57 61.449219 57 62 C 57 62.550781 57.449219 63 58 63 C 58.550781 63 59 62.550781 59 62 C 59 61.449219 58.550781 61 58 61 Z M 62 61 C 61.449219 61 61 61.449219 61 62 C 61 62.550781 61.449219 63 62 63 C 62.550781 63 63 62.550781 63 62 C 63 61.449219 62.550781 61 62 61 Z"/></svg>